<svg width="40" height="40" version="1.1" viewBox="0 0 40 40" xml:space="preserve" xmlns="http://www.w3.org/2000/svg"><defs><clipPath id="clipPath846"><path d="m9.724 26.778v-14.406h-4.7882v14.406h4.7887zm-2.3931-16.372c1.6694 0 2.7088-1.1062 2.7088-2.4886-0.0312-1.4139-1.0393-2.4893-2.6771-2.4893-1.6388 0-2.7091 1.0753-2.7091 2.4891 0 1.3825 1.039 2.4886 2.646 2.4886h0.030979zm5.0435 16.372h4.7878v-8.0438c0-0.43004 0.03125-0.86113 0.15776-1.1682 0.34596-0.8606 1.1338-1.7515 2.4569-1.7515 1.7321 0 2.4255 1.3209 2.4255 3.2577v7.7058h4.7878v-8.2597c0-4.4246-2.3618-6.4836-5.5121-6.4836-2.5828 0-3.7171 1.4436-4.3473 2.4267h0.03192v-2.0885h-4.788c0.06251 1.3514-3.43e-4 14.406-3.43e-4 14.406z" display="none" fill="#fff" stroke-width=".017134"/><path class="powerclip" d="m-5-5.0001h41.999v41.999h-41.999zm14.724 31.778v-14.406h-4.7882v14.406h4.7887zm-2.3931-16.372c1.6694 0 2.7088-1.1062 2.7088-2.4886-0.0312-1.4139-1.0393-2.4893-2.6771-2.4893-1.6388 0-2.7091 1.0753-2.7091 2.4891 0 1.3825 1.039 2.4886 2.646 2.4886h0.030979zm5.0435 16.372h4.7878v-8.0438c0-0.43004 0.03125-0.86113 0.15776-1.1682 0.34596-0.8606 1.1338-1.7515 2.4569-1.7515 1.7321 0 2.4255 1.3209 2.4255 3.2577v7.7058h4.7878v-8.2597c0-4.4246-2.3618-6.4836-5.5121-6.4836-2.5828 0-3.7171 1.4436-4.3473 2.4267h0.03192v-2.0885h-4.788c0.06251 1.3514-3.43e-4 14.406-3.43e-4 14.406z" stroke-width=".017134"/></clipPath></defs><path transform="matrix(1.25 0 0 1.25 0 .000125)" d="m0 2.2919c0-1.2652 1.0592-2.292 2.3649-2.292h27.269c1.3062 0 2.3649 1.0269 2.3649 2.292v27.415c0 1.2656-1.0587 2.2917-2.3649 2.2917h-27.269c-1.3056 0-2.3649-1.026-2.3649-2.2914v-27.415z" clip-path="url(#clipPath846)" fill="#fafafa" stroke-width=".017134"/></svg>
