<svg width="41.011" height="40" version="1.1" viewBox="0 0 41.011 40" xml:space="preserve" xmlns="http://www.w3.org/2000/svg"><g transform="scale(1.7088)" fill="#fafafa"><g transform="scale(.73669)" fill="#fafafa"><path d="m16.289 0c-8.996 0-16.289 7.293-16.289 16.289 0 7.199 4.668 13.305 11.141 15.457 0.812 0.149 1.113-0.351 1.113-0.785 0-0.387-0.016-1.41-0.024-2.77-4.531 0.985-5.488-2.183-5.488-2.183-0.738-1.883-1.808-2.383-1.808-2.383-1.481-1.012 0.113-0.992 0.113-0.992 1.633 0.117 2.492 1.68 2.492 1.68 1.453 2.488 3.816 1.769 4.742 1.355 0.149-1.055 0.571-1.773 1.035-2.18-3.617-0.41-7.421-1.808-7.421-8.05 0-1.778 0.636-3.231 1.679-4.372-0.168-0.41-0.726-2.066 0.156-4.308 0 0 1.372-0.442 4.481 1.668 1.301-0.36 2.695-0.543 4.078-0.547 1.383 4e-3 2.777 0.187 4.078 0.547 3.11-2.11 4.477-1.668 4.477-1.668 0.886 2.242 0.328 3.898 0.16 4.308 1.047 1.141 1.676 2.594 1.676 4.372 0 6.257-3.809 7.636-7.438 8.039 0.586 0.503 1.106 1.496 1.106 3.015 0 2.18-0.02 3.934-0.02 4.469 0 0.437 0.293 0.941 1.121 0.785 6.465-2.16 11.129-8.262 11.129-15.457 0-8.996-7.293-16.289-16.289-16.289" fill="#fafafa" fill-rule="evenodd"/></g></g></svg>
